<?xml version="1.0" standalone="no"?>
<!DOCTYPE svg PUBLIC "-//W3C//DTD SVG 20010904//EN"
 "http://www.w3.org/TR/2001/REC-SVG-20010904/DTD/svg10.dtd">
<svg version="1.0" xmlns="http://www.w3.org/2000/svg"
 width="18px" height="18px" viewBox="0 0 512.000000 512.000000"
 preserveAspectRatio="xMidYMid meet">

<g transform="translate(0.000000,512.000000) scale(0.100000,-0.100000)"
fill="#fff" stroke="none">
<path d="M88 5099 c-23 -12 -46 -35 -58 -59 -20 -40 -20 -47 -17 -2232 3
-2393 -2 -2208 57 -2348 73 -172 229 -328 400 -400 139 -58 15 -54 1737 -57
1575 -3 1583 -3 1623 17 26 13 47 34 60 60 20 40 20 46 17 2232 -3 2393 2
2208 -57 2348 -73 172 -229 328 -400 400 -139 58 -14 54 -1740 57 -1564 2
-1585 2 -1622 -18z m2057 -962 c269 -75 478 -288 546 -557 8 -31 14 -105 14
-170 0 -123 -12 -188 -53 -285 -93 -219 -290 -387 -522 -446 -71 -18 -269 -18
-340 0 -274 69 -492 287 -561 561 -18 71 -18 269 0 340 33 130 99 248 195 348
99 104 241 185 366 211 30 6 64 13 75 15 37 9 229 -3 280 -17z m468 -1691 c68
-28 75 -44 291 -694 113 -340 206 -629 206 -642 0 -45 -40 -109 -81 -130 -37
-20 -64 -20 -1069 -20 -1005 0 -1032 0 -1069 20 -41 21 -81 85 -81 130 0 13
93 302 206 642 215 646 223 665 289 694 45 20 1261 20 1308 0z"/>
<path d="M4288 4189 c-23 -12 -46 -35 -58 -59 -20 -39 -20 -56 -20 -1570 0
-1514 0 -1531 20 -1570 23 -45 80 -80 130 -80 50 0 107 35 130 80 20 39 20 56
20 1570 0 1514 0 1531 -20 1570 -37 73 -127 99 -202 59z"/>
<path d="M4888 3689 c-23 -12 -46 -35 -58 -59 -20 -39 -20 -57 -20 -1070 0
-1013 0 -1031 20 -1070 23 -45 80 -80 130 -80 50 0 107 35 130 80 20 39 20 57
20 1070 0 1013 0 1031 -20 1070 -37 73 -127 99 -202 59z"/>
</g>
</svg>
