<?xml version="1.0" standalone="no"?>
<!DOCTYPE svg PUBLIC "-//W3C//DTD SVG 20010904//EN"
 "http://www.w3.org/TR/2001/REC-SVG-20010904/DTD/svg10.dtd">
<svg version="1.0" xmlns="http://www.w3.org/2000/svg"
 width="18px" height="18px" viewBox="0 0 512.000000 512.000000"
 preserveAspectRatio="xMidYMid meet">

<g transform="translate(0.000000,512.000000) scale(0.100000,-0.100000)"
fill="#000000" stroke="none">
<path d="M1867 4516 c-49 -18 -64 -32 -89 -80 -37 -73 -13 -153 62 -203 l33
-23 687 0 687 0 33 23 c50 33 72 70 77 124 5 59 -25 117 -77 147 -34 21 -49
21 -705 23 -543 2 -677 0 -708 -11z"/>
<path d="M986 4007 c-48 -27 -76 -77 -76 -135 0 -90 61 -150 160 -159 51 -5
60 -9 60 -25 0 -11 41 -602 90 -1314 85 -1211 92 -1299 115 -1372 57 -182 204
-326 390 -385 70 -22 74 -22 835 -22 761 0 765 0 835 22 186 59 333 203 390
385 23 73 30 162 115 1371 49 712 90 1303 90 1314 0 17 9 21 62 26 67 6 100
24 136 77 46 68 18 176 -58 219 l-38 21 -1533 0 -1534 0 -39 -23z m2684 -314
c0 -10 -40 -592 -89 -1295 -82 -1171 -91 -1280 -111 -1325 -27 -61 -62 -98
-125 -131 l-50 -27 -735 0 -735 0 -50 27 c-63 33 -98 70 -125 132 -20 44 -29
152 -111 1325 -49 702 -89 1284 -89 1294 0 16 59 17 1110 17 1051 0 1110 -1
1110 -17z"/>
</g>
</svg>
